<mxfile host="app.diagrams.net" agent="Mozilla/5.0 (Windows NT 10.0; Win64; x64) AppleWebKit/537.36 (KHTML, like Gecko) Chrome/136.0.0.0 Safari/537.36" version="26.0.1">
  <diagram name="Page-1" id="a9xbG8F_GNnG1AXdbUe6">
    <mxGraphModel dx="1518" dy="669" grid="1" gridSize="10" guides="1" tooltips="1" connect="1" arrows="1" fold="1" page="1" pageScale="1" pageWidth="850" pageHeight="1100" math="0" shadow="0">
      <root>
        <mxCell id="0" />
        <mxCell id="1" parent="0" />
        <mxCell id="sUPJJfyMSfGlv_dS8gxe-11" style="edgeStyle=orthogonalEdgeStyle;rounded=0;orthogonalLoop=1;jettySize=auto;html=1;entryX=0;entryY=0.5;entryDx=0;entryDy=0;" edge="1" parent="1" source="sUPJJfyMSfGlv_dS8gxe-1" target="sUPJJfyMSfGlv_dS8gxe-2">
          <mxGeometry relative="1" as="geometry" />
        </mxCell>
        <mxCell id="sUPJJfyMSfGlv_dS8gxe-1" value="Gestor de&amp;nbsp;&lt;div&gt;Departamento&lt;/div&gt;" style="shape=umlActor;verticalLabelPosition=bottom;verticalAlign=top;html=1;outlineConnect=0;" vertex="1" parent="1">
          <mxGeometry x="30" y="350" width="50" height="120" as="geometry" />
        </mxCell>
        <mxCell id="sUPJJfyMSfGlv_dS8gxe-12" style="edgeStyle=orthogonalEdgeStyle;rounded=0;orthogonalLoop=1;jettySize=auto;html=1;entryX=0.5;entryY=0;entryDx=0;entryDy=0;" edge="1" parent="1" source="sUPJJfyMSfGlv_dS8gxe-2" target="sUPJJfyMSfGlv_dS8gxe-3">
          <mxGeometry relative="1" as="geometry" />
        </mxCell>
        <mxCell id="sUPJJfyMSfGlv_dS8gxe-2" value="Buscar Discente" style="ellipse;whiteSpace=wrap;html=1;" vertex="1" parent="1">
          <mxGeometry x="230" y="140" width="120" height="80" as="geometry" />
        </mxCell>
        <mxCell id="sUPJJfyMSfGlv_dS8gxe-13" style="edgeStyle=orthogonalEdgeStyle;rounded=0;orthogonalLoop=1;jettySize=auto;html=1;entryX=0.5;entryY=0;entryDx=0;entryDy=0;" edge="1" parent="1" source="sUPJJfyMSfGlv_dS8gxe-3" target="sUPJJfyMSfGlv_dS8gxe-4">
          <mxGeometry relative="1" as="geometry" />
        </mxCell>
        <mxCell id="sUPJJfyMSfGlv_dS8gxe-3" value="Ativar Usuário" style="ellipse;whiteSpace=wrap;html=1;" vertex="1" parent="1">
          <mxGeometry x="230" y="260" width="120" height="80" as="geometry" />
        </mxCell>
        <mxCell id="sUPJJfyMSfGlv_dS8gxe-14" style="edgeStyle=orthogonalEdgeStyle;rounded=0;orthogonalLoop=1;jettySize=auto;html=1;entryX=0.5;entryY=0;entryDx=0;entryDy=0;" edge="1" parent="1" source="sUPJJfyMSfGlv_dS8gxe-4" target="sUPJJfyMSfGlv_dS8gxe-5">
          <mxGeometry relative="1" as="geometry" />
        </mxCell>
        <mxCell id="sUPJJfyMSfGlv_dS8gxe-4" value="Recuperar Senha" style="ellipse;whiteSpace=wrap;html=1;" vertex="1" parent="1">
          <mxGeometry x="230" y="370" width="120" height="80" as="geometry" />
        </mxCell>
        <mxCell id="sUPJJfyMSfGlv_dS8gxe-15" style="edgeStyle=orthogonalEdgeStyle;rounded=0;orthogonalLoop=1;jettySize=auto;html=1;entryX=0.5;entryY=0;entryDx=0;entryDy=0;" edge="1" parent="1" source="sUPJJfyMSfGlv_dS8gxe-5" target="sUPJJfyMSfGlv_dS8gxe-6">
          <mxGeometry relative="1" as="geometry" />
        </mxCell>
        <mxCell id="sUPJJfyMSfGlv_dS8gxe-5" value="Editar Login" style="ellipse;whiteSpace=wrap;html=1;" vertex="1" parent="1">
          <mxGeometry x="230" y="480" width="120" height="80" as="geometry" />
        </mxCell>
        <mxCell id="sUPJJfyMSfGlv_dS8gxe-17" value="" style="edgeStyle=orthogonalEdgeStyle;rounded=0;orthogonalLoop=1;jettySize=auto;html=1;" edge="1" parent="1" source="sUPJJfyMSfGlv_dS8gxe-6" target="sUPJJfyMSfGlv_dS8gxe-16">
          <mxGeometry relative="1" as="geometry" />
        </mxCell>
        <mxCell id="sUPJJfyMSfGlv_dS8gxe-6" value="Salvar Alterações" style="ellipse;whiteSpace=wrap;html=1;" vertex="1" parent="1">
          <mxGeometry x="230" y="590" width="120" height="80" as="geometry" />
        </mxCell>
        <mxCell id="sUPJJfyMSfGlv_dS8gxe-19" style="edgeStyle=orthogonalEdgeStyle;rounded=0;orthogonalLoop=1;jettySize=auto;html=1;entryX=0;entryY=0.5;entryDx=0;entryDy=0;" edge="1" parent="1" source="sUPJJfyMSfGlv_dS8gxe-16" target="sUPJJfyMSfGlv_dS8gxe-18">
          <mxGeometry relative="1" as="geometry" />
        </mxCell>
        <mxCell id="sUPJJfyMSfGlv_dS8gxe-20" value="Sim" style="edgeLabel;html=1;align=center;verticalAlign=middle;resizable=0;points=[];" vertex="1" connectable="0" parent="sUPJJfyMSfGlv_dS8gxe-19">
          <mxGeometry x="-0.2382" y="2" relative="1" as="geometry">
            <mxPoint as="offset" />
          </mxGeometry>
        </mxCell>
        <mxCell id="sUPJJfyMSfGlv_dS8gxe-22" style="edgeStyle=orthogonalEdgeStyle;rounded=0;orthogonalLoop=1;jettySize=auto;html=1;exitX=0.5;exitY=1;exitDx=0;exitDy=0;entryX=0.5;entryY=0;entryDx=0;entryDy=0;" edge="1" parent="1" source="sUPJJfyMSfGlv_dS8gxe-16" target="sUPJJfyMSfGlv_dS8gxe-21">
          <mxGeometry relative="1" as="geometry" />
        </mxCell>
        <mxCell id="sUPJJfyMSfGlv_dS8gxe-28" value="Não" style="edgeLabel;html=1;align=center;verticalAlign=middle;resizable=0;points=[];" vertex="1" connectable="0" parent="sUPJJfyMSfGlv_dS8gxe-22">
          <mxGeometry x="-0.1157" y="-3" relative="1" as="geometry">
            <mxPoint y="-1" as="offset" />
          </mxGeometry>
        </mxCell>
        <mxCell id="sUPJJfyMSfGlv_dS8gxe-16" value="Erro ao Salvar" style="whiteSpace=wrap;html=1;" vertex="1" parent="1">
          <mxGeometry x="230" y="710" width="120" height="60" as="geometry" />
        </mxCell>
        <mxCell id="sUPJJfyMSfGlv_dS8gxe-27" style="edgeStyle=orthogonalEdgeStyle;rounded=0;orthogonalLoop=1;jettySize=auto;html=1;entryX=0.5;entryY=0;entryDx=0;entryDy=0;" edge="1" parent="1" source="sUPJJfyMSfGlv_dS8gxe-18" target="sUPJJfyMSfGlv_dS8gxe-26">
          <mxGeometry relative="1" as="geometry" />
        </mxCell>
        <mxCell id="sUPJJfyMSfGlv_dS8gxe-18" value="Mensagem de Error" style="ellipse;whiteSpace=wrap;html=1;" vertex="1" parent="1">
          <mxGeometry x="470" y="700" width="120" height="80" as="geometry" />
        </mxCell>
        <mxCell id="sUPJJfyMSfGlv_dS8gxe-29" style="edgeStyle=orthogonalEdgeStyle;rounded=0;orthogonalLoop=1;jettySize=auto;html=1;entryX=0;entryY=0.5;entryDx=0;entryDy=0;" edge="1" parent="1" source="sUPJJfyMSfGlv_dS8gxe-21" target="sUPJJfyMSfGlv_dS8gxe-26">
          <mxGeometry relative="1" as="geometry" />
        </mxCell>
        <mxCell id="sUPJJfyMSfGlv_dS8gxe-21" value="Mensagem de Sucesso" style="ellipse;whiteSpace=wrap;html=1;" vertex="1" parent="1">
          <mxGeometry x="230" y="840" width="120" height="80" as="geometry" />
        </mxCell>
        <mxCell id="sUPJJfyMSfGlv_dS8gxe-26" value="Retorno para Busca de Discentes" style="ellipse;whiteSpace=wrap;html=1;" vertex="1" parent="1">
          <mxGeometry x="470" y="840" width="120" height="80" as="geometry" />
        </mxCell>
      </root>
    </mxGraphModel>
  </diagram>
</mxfile>
